<svg xmlns="http://www.w3.org/2000/svg" viewBox="0 0 512 512">
<rect width="512" height="512" fill="#1C1937"/>
<ellipse cx="256" cy="452" rx="180" ry="26" fill="#000000" opacity="0.35"/>
<polygon points="256.0,88.0 416.0,168.0 256.0,248.0 96.0,168.0" fill="#17142E"/>
<polygon points="96.0,168.0 256.0,248.0 256.0,432.0 96.0,352.0" fill="#17142E"/>
<polygon points="256.0,248.0 416.0,168.0 416.0,352.0 256.0,432.0" fill="#17142E"/>
<polygon points="256.0,92.8 299.7,114.7 256.0,136.5 212.3,114.7" fill="#F2F2F0"/>
<polygon points="202.7,119.5 246.4,141.3 202.7,163.2 158.9,141.3" fill="#F2F2F0"/>
<polygon points="149.3,146.1 193.1,168.0 149.3,189.9 105.6,168.0" fill="#F2F2F0"/>
<polygon points="309.3,119.5 353.1,141.3 309.3,163.2 265.6,141.3" fill="#F2F2F0"/>
<polygon points="256.0,146.1 299.7,168.0 256.0,189.9 212.3,168.0" fill="#F2F2F0"/>
<polygon points="202.7,172.8 246.4,194.7 202.7,216.5 158.9,194.7" fill="#F2F2F0"/>
<polygon points="362.7,146.1 406.4,168.0 362.7,189.9 318.9,168.0" fill="#F2F2F0"/>
<polygon points="309.3,172.8 353.1,194.7 309.3,216.5 265.6,194.7" fill="#F2F2F0"/>
<polygon points="256.0,199.5 299.7,221.3 256.0,243.2 212.3,221.3" fill="#F2F2F0"/>
<polygon points="100.8,175.9 144.5,197.8 144.5,248.1 100.8,226.2" fill="#2E9E44"/>
<polygon points="100.8,237.3 144.5,259.1 144.5,309.4 100.8,287.5" fill="#2E9E44"/>
<polygon points="100.8,298.6 144.5,320.5 144.5,370.7 100.8,348.9" fill="#2E9E44"/>
<polygon points="154.1,202.6 197.9,224.5 197.9,274.7 154.1,252.9" fill="#2E9E44"/>
<polygon points="154.1,263.9 197.9,285.8 197.9,336.1 154.1,314.2" fill="#2E9E44"/>
<polygon points="154.1,325.3 197.9,347.1 197.9,397.4 154.1,375.5" fill="#2E9E44"/>
<polygon points="207.5,229.3 251.2,251.1 251.2,301.4 207.5,279.5" fill="#2E9E44"/>
<polygon points="207.5,290.6 251.2,312.5 251.2,362.7 207.5,340.9" fill="#2E9E44"/>
<polygon points="207.5,351.9 251.2,373.8 251.2,424.1 207.5,402.2" fill="#2E9E44"/>
<polygon points="260.8,251.1 304.5,229.3 304.5,279.5 260.8,301.4" fill="#C62828"/>
<polygon points="260.8,312.5 304.5,290.6 304.5,340.9 260.8,362.7" fill="#C62828"/>
<polygon points="260.8,373.8 304.5,351.9 304.5,402.2 260.8,424.1" fill="#C62828"/>
<polygon points="314.1,224.5 357.9,202.6 357.9,252.9 314.1,274.7" fill="#C62828"/>
<polygon points="314.1,285.8 357.9,263.9 357.9,314.2 314.1,336.1" fill="#C62828"/>
<polygon points="314.1,347.1 357.9,325.3 357.9,375.5 314.1,397.4" fill="#C62828"/>
<polygon points="367.5,197.8 411.2,175.9 411.2,226.2 367.5,248.1" fill="#C62828"/>
<polygon points="367.5,259.1 411.2,237.3 411.2,287.5 367.5,309.4" fill="#C62828"/>
<polygon points="367.5,320.5 411.2,298.6 411.2,348.9 367.5,370.7" fill="#C62828"/>
<polygon points="256.0,88.0 416.0,168.0 416.0,352.0 256.0,432.0 96.0,352.0 96.0,168.0" fill="none" stroke="#17142E" stroke-width="10" stroke-linejoin="round"/>
</svg>