<svg xmlns="http://www.w3.org/2000/svg" viewBox="0 0 512 512">
  <!-- green felt, red card back, ace of spades -->
  <rect width="512" height="512" fill="#1F7A4A"/>
  <rect x="14" y="14" width="484" height="484" fill="none" stroke="#175F39" stroke-width="16" opacity="0.55"/>
  <!-- card back, tucked behind -->
  <g transform="translate(196,262) rotate(-14)">
    <rect x="-120" y="-172" width="240" height="344" rx="20" transform="translate(8,14)" fill="#17142E" opacity="0.22"/>
    <rect x="-120" y="-172" width="240" height="344" rx="20" fill="#FDFDF8" stroke="#17142E" stroke-width="8"/>
    <rect x="-98" y="-150" width="196" height="300" rx="10" fill="#B23636"/>
    <g stroke="#D06060" stroke-width="7">
      <line x1="-98" y1="-106" x2="46" y2="150"/>
      <line x1="-98" y1="-18" x2="-4" y2="150"/>
      <line x1="-98" y1="70" x2="-53" y2="150"/>
      <line x1="-54" y1="-150" x2="98" y2="120"/>
      <line x1="-8" y1="-150" x2="98" y2="38"/>
      <line x1="40" y1="-150" x2="98" y2="-46"/>
      <line x1="98" y1="-106" x2="-46" y2="150"/>
      <line x1="98" y1="-18" x2="4" y2="150"/>
      <line x1="98" y1="70" x2="53" y2="150"/>
      <line x1="54" y1="-150" x2="-98" y2="120"/>
      <line x1="8" y1="-150" x2="-98" y2="38"/>
      <line x1="-40" y1="-150" x2="-98" y2="-46"/>
    </g>
    <rect x="-98" y="-150" width="196" height="300" rx="10" fill="none" stroke="#FDFDF8" stroke-width="7"/>
  </g>
  <!-- ace of spades, front -->
  <g transform="translate(322,276) rotate(9)">
    <rect x="-120" y="-172" width="240" height="344" rx="20" transform="translate(8,14)" fill="#17142E" opacity="0.25"/>
    <rect x="-120" y="-172" width="240" height="344" rx="20" fill="#FDFDF8" stroke="#17142E" stroke-width="8"/>
    <text x="-96" y="-104" font-family="Helvetica" font-weight="bold" font-size="72" fill="#17142E">A</text>
    <g transform="translate(-76,-66) scale(0.34)">
      <path d="M0 -62 C-34 -18 -58 -6 -58 26 C-58 52 -30 60 -12 46 C-16 66 -24 78 -34 86 L34 86 C24 78 16 66 12 46 C30 60 58 52 58 26 C58 -6 34 -18 0 -62 Z" fill="#17142E"/>
    </g>
    <g transform="translate(0,-4) scale(1.5)">
      <path d="M0 -62 C-34 -18 -58 -6 -58 26 C-58 52 -30 60 -12 46 C-16 66 -24 78 -34 86 L34 86 C24 78 16 66 12 46 C30 60 58 52 58 26 C58 -6 34 -18 0 -62 Z" fill="#17142E"/>
    </g>
  </g>
</svg>
